<svg width="602" height="553" viewBox="0 0 602 553" fill="none" xmlns="http://www.w3.org/2000/svg">
<path d="M378 17L420 57L462 285H67L378 17Z" fill="#FFCF2D"/>
<path d="M420 56.9994L378 16.9994L385 8.99936C395.373 -1.54458 414.224 -0.129463 425 9.99936C435.776 20.1489 437.373 39.4554 427 49.9994L420 56.9994Z" fill="white"/>
<path d="M420 57.9998L377 16.9998L385 8.99976C390.07 3.74578 396.947 0.724345 405 0.999756C412.712 1.27517 420.631 4.87289 426 9.99976C431.369 15.1266 434.446 22.3306 435 29.9998C435.575 37.9866 433.07 44.7458 428 49.9998L420 57.9998ZM379 15.9998L420 55.9998L427 48.9998C431.836 44.0212 434.533 37.6265 434 29.9998C433.467 22.6272 430.156 14.9148 425 9.99976C419.844 5.08474 412.393 2.25398 405 1.99976C397.33 1.72435 389.815 5.02119 385 9.99976L379 15.9998Z" fill="#FFCF2D"/>
<path d="M427 50.9998C426.831 50.9998 427.127 51.1049 427 50.9998L384 9.99978C383.746 9.74749 383.767 9.25206 384 8.99978C384.254 8.74749 384.767 8.76851 385 8.99978L428 49.9998C428.254 50.2521 428.233 50.7475 428 50.9998C427.894 51.1259 427.169 50.9998 427 50.9998Z" fill="#FFCF2D"/>
<path d="M508 284C507.915 284 508.085 284.043 508 284C507.682 283.853 506.852 283.317 507 283L567 152L451 12.0004C448.82 9.04776 445.64 6.52769 442 6.00043C438.36 5.47316 434.92 6.76483 432 9.00043L427 13.0004C426.725 13.2113 426.211 13.2957 426 13.0004C425.788 12.7262 425.704 12.2113 426 12.0004L431 8.00043C434.195 5.57502 438.022 4.43098 442 5.00043C445.978 5.56987 449.63 7.77358 452 11.0004L568 152L509 284C508.894 284.232 508.233 284 508 284Z" fill="#3FB1B5"/>
<path d="M567 159C570.59 159 573 156.59 573 153C573 149.41 570.59 146 567 146C563.41 146 560 149.41 560 153C560 156.59 563.41 159 567 159Z" fill="white"/>
<path d="M566 159C562.146 159 559 155.854 559 152C559 148.146 562.146 145 566 145C569.854 145 573 148.146 573 152C573 155.854 569.854 159 566 159ZM566 146C562.833 146 560 148.833 560 152C560 155.167 562.833 158 566 158C569.167 158 572 155.167 572 152C572 148.833 569.167 146 566 146Z" fill="#FFCF2D"/>
<path d="M493 269H524C533.161 269 541 276.882 541 286H476C476.021 276.882 483.839 269 493 269Z" fill="white"/>
<path d="M541 286H475V285C475.021 275.685 482.559 268 492 268H524C533.441 268 541 275.685 541 285V286ZM476 285H540C539.915 276.441 532.697 269 524 269H492C483.325 269 476.106 276.441 476 285Z" fill="#FFCF2D"/>
<path d="M340 238H141C133.485 238 127 231.518 127 224V85C127 77.4822 133.485 71 141 71H340C347.515 71 354 77.4822 354 85V224C354.021 231.518 347.515 238 340 238Z" fill="white"/>
<path d="M340 238H140C132.155 238 126 231.844 126 224V84C126 76.1561 132.155 70 140 70H340C347.845 70 354 76.1561 354 84V224C354.021 227.785 352.685 231.315 350 234C347.315 236.706 343.806 238 340 238ZM140 71C132.874 71 127 76.8749 127 84V224C127 231.125 132.874 237 140 237H340C343.468 237 346.547 235.453 349 233C351.432 230.547 353.021 227.446 353 224V84C353 76.8749 347.126 71 340 71H140Z" fill="#3FB1B5"/>
<path d="M341 226H142C139.051 226 137 223.935 137 221V86C137 83.0439 139.072 81 142 81H341C343.949 81 346 83.0651 346 86V221C346.021 223.956 343.949 226 341 226Z" fill="#66B0F0"/>
<path d="M340 226H142C138.715 226 136 223.29 136 220V86C136 82.7098 138.715 80 142 80H340C343.285 80 346 82.7098 346 86V220C346.021 221.592 345.123 222.875 344 224C342.856 225.125 341.61 226 340 226ZM142 81C139.415 81 137 83.4103 137 86V220C137 222.59 139.415 225 142 225H340C341.25 225 342.11 223.892 343 223C343.89 222.108 345 221.252 345 220V86C345 83.4103 342.585 81 340 81H142Z" fill="#66B0F0"/>
<path d="M150 93H146C144.646 93 144 92.3542 144 91V87C144 85.6458 144.646 85 146 85H150C151.354 85 152 85.6458 152 87V91C151.979 92.375 151.354 93 150 93ZM146 86C145.333 86 145 86.3333 145 87V91C145 91.6667 145.333 92 146 92H150C150.667 92 150.979 91.6875 151 91V87C151 86.3333 150.667 86 150 86H146Z" fill="white"/>
<path d="M164 93H160C158.646 93 158 92.3542 158 91V87C158 85.6458 158.646 85 160 85H164C165.354 85 166 85.6458 166 87V91C166 92.3542 165.354 93 164 93ZM160 86C159.333 86 159 86.3333 159 87V91C159 91.6667 159.333 92 160 92H164C164.667 92 165 91.6667 165 91V87C165 86.3333 164.667 86 164 86H160Z" fill="white"/>
<path d="M179 93H175C173.646 93 173 92.3542 173 91V87C173 85.6458 173.646 85 175 85H179C180.354 85 181 85.6458 181 87V91C181 92.3542 180.354 93 179 93ZM175 86C174.333 86 174 86.3333 174 87V91C174 91.6667 174.333 92 175 92H179C179.688 92 180 91.6875 180 91V87C180 86.3333 179.667 86 179 86H175Z" fill="white"/>
<path d="M282 286H205L220 238H267L282 286Z" fill="white"/>
<path d="M283 286H204L220 237H267L283 286ZM206 285H281L266 238H220L206 285Z" fill="#3FB1B5"/>
<path d="M211 267L220 238H267L211 267Z" fill="#3FB1B5"/>
<path d="M329 124H291C287.108 124 284 120.834 284 117V93C284 89.1665 287.108 86 291 86H329C332.892 86 336 89.1665 336 93V117C336 120.834 332.892 124 329 124ZM291 87C287.81 87 285 89.8578 285 93V117C285 120.142 287.81 123 291 123H329C332.19 123 335 120.142 335 117V93C335 89.8578 332.19 87 329 87H291Z" fill="white"/>
<path d="M324 96H296C295.641 96 295 96.2263 295 96C295 95.7737 295.641 95 296 95H324C324.359 95 325 95.7737 325 96C325 96.2263 324.359 96 324 96Z" fill="white"/>
<path d="M324 102H296C295.641 102 295 102.226 295 102C295 101.774 295.641 101 296 101H324C324.359 101 325 101.774 325 102C325 102.226 324.359 102 324 102Z" fill="white"/>
<path d="M324 109H296C295.641 109 295 109.226 295 109C295 108.774 295.641 108 296 108H324C324.359 108 325 108.774 325 109C325 109.226 324.359 109 324 109Z" fill="white"/>
<path d="M324 115H296C295.641 115 295 115.226 295 115C295 114.774 295.641 114 296 114H324C324.359 114 325 114.774 325 115C325 115.226 324.359 115 324 115Z" fill="white"/>
<path d="M339 225H189L181 237C171.082 251.243 149.193 252.053 139 238L86 164C88.2416 166.798 98.2302 163.443 108 157C117.918 150.451 125.009 142.052 123 139L160 186L171 166C174.109 160.68 178.994 157.399 185 156L224 148H257L294 156C300.386 157.462 305.934 161.214 309 167L339 225Z" fill="white"/>
<path d="M159 249C150.632 249 143.936 244.819 139 238L85 164H86C87.8007 166.231 96.8949 163.671 107 157C111.703 153.898 116.288 150.441 119 147C121.457 143.898 122.805 141.211 122 140L123 139L159 186L170 166C173.199 160.519 178.856 157.423 185 156L224 147H257L294 155C300.567 156.508 305.843 161.031 309 167L340 226H189L181 238C176.149 244.968 168.495 248.915 160 249C159.936 249 159.085 249 159 249ZM87 166L140 238C144.745 244.543 151.929 248.085 160 248C168.071 247.915 175.382 243.628 180 237L189 224H338L308 168C305.013 162.349 300.207 158.423 294 157L257 149H224L185 157C179.195 158.36 174.008 161.838 171 167L159 188L123 142C122.703 143.593 121.78 144.769 120 147C117.204 150.526 112.809 154.835 108 158C101.284 162.419 93.8089 166 89 166C88.6187 166 87.339 166.042 87 166Z" fill="#3FB1B5"/>
<path d="M298 224C297.778 224 298.121 224.204 298 224L287 203C286.859 202.694 286.698 202.143 287 202C287.302 201.857 287.859 201.694 288 202L299 223C299.141 223.306 299.302 223.857 299 224C298.919 224.041 298.1 224 298 224Z" fill="#3FB1B5"/>
<path d="M189 226C188.899 226 188.101 226.041 188 226C187.697 225.856 187.838 225.288 188 225L199 204C199.142 203.691 199.717 203.835 200 204C200.303 204.144 200.162 204.712 200 205L189 226C189.223 226 188.899 226.206 189 226Z" fill="#3FB1B5"/>
<path d="M168 200C167.818 200 168.121 200.166 168 200L144 169C143.798 168.73 143.737 168.207 144 168C144.263 167.793 144.798 167.73 145 168L169 199C169.202 199.269 169.263 199.793 169 200C168.899 200.103 168.121 200 168 200Z" fill="#3FB1B5"/>
<path d="M253 170L244 158C243.773 157.722 243.732 157.214 244 157C244.268 156.765 244.794 157.722 245 158L254 168L273 151C273.268 150.765 273.794 150.743 274 151C274.226 151.278 274.247 151.786 274 152L253 170Z" fill="#3FB1B5"/>
<path d="M230 170L207 152C206.729 151.79 206.791 151.272 207 151C207.209 150.728 207.729 150.79 208 151L230 168L238 158C238.209 157.728 238.729 156.79 239 157C239.271 157.209 239.209 157.728 239 158L230 170Z" fill="#3FB1B5"/>
<path d="M96 175C93.9273 175 92.5454 174.664 92 174C91.7818 173.731 91.7164 173.208 92 173C92.2836 172.793 92.7818 172.731 93 173C93.9163 174.099 96.9201 174.161 101 173C105.342 171.756 110.244 169.007 115 166C119.865 162.932 126.186 159.4 129 156C131.553 152.932 131.829 150.203 131 149C130.804 148.71 131.695 148.208 132 148C132.305 147.814 132.782 147.71 133 148C134.178 149.721 132.989 153.393 130 157C127.098 160.483 120.974 163.87 116 167C111.069 170.11 105.538 172.694 101 174C98.5346 174.705 97.3745 175 96 175Z" fill="#3FB1B5"/>
<path d="M123 155C121.343 155 120 153.657 120 152C120 150.343 121.343 149 123 149C124.657 149 126 150.343 126 152C126 153.657 124.657 155 123 155ZM123 150C122.035 150 121 151.035 121 152C121 152.965 122.035 154 123 154C123.965 154 125 152.965 125 152C125 151.035 123.965 150 123 150Z" fill="#3FB1B5"/>
<path d="M241 170C239.343 170 238 168.657 238 167C238 165.343 239.343 164 241 164C242.657 164 244 165.343 244 167C244 168.657 242.657 170 241 170ZM241 165C240.035 165 239 166.035 239 167C239 167.965 240.035 169 241 169C241.965 169 243 167.965 243 167C243 166.035 241.965 165 241 165Z" fill="#3FB1B5"/>
<path d="M241 189C239.343 189 238 187.657 238 186C238 184.343 239.343 183 241 183C242.657 183 244 184.343 244 186C244 187.657 242.657 189 241 189ZM241 184C240.035 184 239 185.035 239 186C239 186.965 240.035 188 241 188C241.965 188 243 186.965 243 186C243 185.035 241.965 184 241 184Z" fill="#3FB1B5"/>
<path d="M179 239L189 225V239H179Z" fill="#3FB1B5"/>
<path d="M107 156C97.1586 162.408 85.2577 165.783 82.9997 163C82.9571 162.958 83.0423 163.063 82.9997 163C82.5311 162.304 82.5737 161.159 82.9997 160C84.4695 156.185 90.2887 150.017 97.9997 145C104.134 140.995 111.803 137.864 116 137C118.428 136.515 120.126 137.073 121 138H122C124.002 141.036 116.99 149.486 107 156Z" fill="#FE5244"/>
<path d="M107 157C101.43 160.675 96.3202 162.98 91.9997 164L72.9997 137C70.31 133.177 71.1663 127.698 74.9997 125L91.9997 113L81.9997 96C80.5595 93.5573 81.5429 90.4231 83.9997 89C84.8045 88.5327 85.1314 88 85.9997 88C87.6728 88 90.0255 88.4707 90.9997 90L121 138L122 139C123.969 142.016 116.933 150.437 107 157Z" fill="#E57281"/>
<path d="M95.9997 137C95.7216 137 95.2778 137.063 94.9997 137C93.9301 136.79 92.5773 135.881 91.9997 135L81.9997 120C81.8072 119.706 81.7216 119.209 81.9997 119C82.2992 118.811 82.7858 118.727 82.9997 119L92.9997 134C93.4061 134.608 94.2724 135.853 94.9997 136C95.727 136.147 96.3793 135.398 96.9997 135L98.9997 134C100.283 133.181 100.813 131.259 99.9997 130L89.9997 113C89.8072 112.706 89.7002 112.188 89.9997 112C90.2992 111.811 90.8072 111.706 90.9997 112L101 129C102.198 130.847 101.861 133.824 99.9997 135L97.9997 136C97.3579 136.461 96.7912 137 95.9997 137Z" fill="#9A3B82"/>
<path d="M87.9996 142C86.7116 142 84.7683 141.124 83.9996 140C83.8126 139.713 83.7088 139.204 83.9996 139C84.2905 138.816 84.7919 138.713 84.9996 139C85.8098 140.206 87.7531 140.777 88.9996 140L90.9996 139C91.6021 138.611 92.8542 137.715 92.9996 137C93.145 136.284 92.3943 135.593 91.9996 135C91.8126 134.713 91.7088 134.204 91.9996 134C92.2905 133.816 92.7919 133.713 92.9996 134C93.5813 134.879 94.2281 135.957 93.9996 137C93.7711 138.022 92.8929 139.427 91.9996 140L89.9996 141C89.3348 141.388 88.7267 142 87.9996 142Z" fill="#9A3B82"/>
<path d="M79.9998 146C78.7902 146 77.7457 145.078 76.9998 144L70.9998 136C70.7982 135.715 70.7377 135.203 70.9998 135C71.2619 134.796 71.7982 135.735 71.9998 136L77.9998 144C78.8263 145.159 79.8306 144.752 80.9998 144H81.9998L82.9998 143C83.6046 142.613 84.8385 142.691 84.9998 142C85.1611 141.288 84.3828 139.61 83.9998 139L74.9998 125C74.8184 124.715 74.7176 124.203 74.9998 124C75.282 123.817 75.7982 123.715 75.9998 124L84.9998 139C85.5844 139.895 86.2216 140.983 85.9998 142C85.7781 143.017 84.8868 143.451 83.9998 144L81.9998 145C81.3345 145.447 80.6852 146 79.9998 146Z" fill="#9A3B82"/>
<path d="M114 127L109 120C107.35 117.401 103.527 116.267 101 118L89 126C89 126 92.2698 133.178 101 128L104 132C98.0267 135.826 96.1153 144.019 100 150L114 127Z" fill="#E57281"/>
<path d="M100 150C99.7924 150 100.125 150.186 100 150C98.0483 147.029 97.2318 143.466 98 140C98.7059 136.741 100.28 133.898 103 132L101 128C98.0102 129.63 95.4085 129.64 93 129C89.9479 128.175 88.0623 126.083 88 126L100 117C101.37 116.093 103.401 115.67 105 116C106.599 116.33 108.107 117.618 109 119L114 127C114.187 127.289 114.291 126.815 114 127C113.709 127.186 113.187 127.289 113 127L108 119C107.294 117.907 106.287 117.248 105 117C103.733 116.732 102.059 117.278 101 118L90 126C90.4983 126.64 91.2144 127.526 93 128C95.2008 128.599 98.114 128.671 101 127V126L105 132C102.28 133.713 99.6852 136.864 99 140C98.3148 143.136 99.2144 146.318 101 149C101.187 149.289 101.291 149.794 101 150C100.917 150.042 100.125 150 100 150Z" fill="#9A3B82"/>
<path d="M107 156C101.513 159.582 96.2562 162.006 92 163L87 156C89.6497 152.563 94.3876 148.665 100 145C106.009 141.066 111.89 137.849 116 137C118.378 136.524 120.145 137.089 121 138H122C122.021 138.041 121.979 137.959 122 138C122.021 138.021 121.979 137.959 122 138C122.021 138.041 121.979 137.959 122 138C123.419 141.168 116.472 149.788 107 156Z" fill="#9A3B82"/>
<path d="M256 129V148C256 153.519 248.097 158 239 158C229.882 158 223 153.519 223 148V129H256Z" fill="#E57281"/>
<path d="M228 155C225.011 153.209 223 150.74 223 148V129H256V134C256 139.459 252.89 144.95 248 147L228 155Z" fill="#9A3B82"/>
<path d="M266 128V129C266 132.283 263.217 135 260 135H256C254.709 140.313 250.63 144 245 144H235C229.392 144 225.27 140.334 224 135H220C216.783 135 214 132.283 214 129V128C214 124.717 216.783 123 220 123H223V118C223 112.99 227.28 108.691 232 108C233.037 109.771 235.608 114.238 242 114C245.005 113.892 247.693 112.691 250 112C252.772 111.179 256.302 113.301 257 116C257.106 116.605 257 117.374 257 118V123H260C263.196 123 266 124.717 266 128Z" fill="#E57281"/>
<path d="M259 122H257V117C257 116.557 256.104 116.401 256 116C255.316 113.363 252.714 111.198 250 112C247.742 112.675 244.962 112.895 242 113C235.744 113.232 233.015 109.73 232 108C227.38 108.675 223 112.106 223 117V122H220C220 122 216.203 107.882 219 104C221.755 100.181 225 102 225 102C225 102 223.896 90.789 235 91C246.083 91.211 260.944 104.595 262 107C263.657 110.692 259 122 259 122Z" fill="#9A3B82"/>
<path d="M258 130C257.712 130 257 129.288 257 129C257 126.531 258.531 125 261 125C261.288 125 262 125.712 262 126C262 126.288 261.288 126 261 126C259.087 126 258 127.086 258 129C258 129.288 258.288 130 258 130Z" fill="#9A3B82"/>
<path d="M221 130C220.712 130 221 129.288 221 129C221 127.086 219.913 126 218 126C217.712 126 217 126.288 217 126C217 125.712 217.712 125 218 125C220.469 125 222 126.531 222 129C222 129.288 221.288 130 221 130Z" fill="#9A3B82"/>
<path d="M250 118C249.9 118 250.099 118.07 250 118C249.9 117.907 247.282 115.392 244 117C243.741 117.116 243.119 117.303 243 117C242.9 116.697 242.741 117.14 243 117C246.819 115.159 250.88 116.883 251 117C251.219 117.186 251.179 117.744 251 118C250.92 118.163 250.159 118 250 118Z" fill="#9A3B82"/>
<path d="M228 118C227.84 118 227.1 118.142 227 118C226.84 117.741 226.781 117.189 227 117C227.12 116.883 231.19 115.14 235 117C235.259 117.118 235.1 116.694 235 117C234.9 117.306 234.259 117.118 234 117C230.689 115.375 228.04 117.977 228 118C228.1 118 227.92 118.047 228 118Z" fill="#9A3B82"/>
<path d="M240 136C239.202 136 238.043 135.338 237 135C236.734 134.91 236.898 135.231 237 135C237.102 134.768 237.734 134.91 238 135C242.297 136.391 243.938 133.107 244 133C244.123 132.786 244.754 132.893 245 133C245.245 133.107 245.123 133.786 245 134C244.979 134.035 243.09 136 240 136Z" fill="#9A3B82"/>
<path d="M239 132C238.6 132 237.365 132.03 237 132C236.756 131.985 236.983 131.21 237 131C237.017 130.79 237.756 130.985 238 131C239.026 131.06 239.983 131 240 131C240.243 130.985 240.983 130.79 241 131C241.017 131.21 241.243 131.985 241 132C240.965 132 239.783 132 239 132Z" fill="#9A3B82"/>
<path d="M247 127C247.552 127 248 126.105 248 125C248 123.895 247.552 123 247 123C246.448 123 246 123.895 246 125C246 126.105 246.448 127 247 127Z" fill="#9A3B82"/>
<path d="M232 127C232.552 127 233 126.105 233 125C233 123.895 232.552 123 232 123C231.448 123 231 123.895 231 125C231 126.105 231.448 127 232 127Z" fill="#9A3B82"/>
<path d="M236 131H229C227.356 131 226 129.518 226 128V122C226 120.482 227.356 119 229 119H236C237.644 119 239 120.482 239 122V128C239.022 128.718 238.556 129.487 238 130C237.422 130.554 236.822 131 236 131ZM229 120C227.956 120 227 121.036 227 122V128C227 128.964 227.956 130 229 130H236C236.511 130 236.644 129.349 237 129C237.356 128.672 238 128.451 238 128V122C238 121.036 237.044 120 236 120H229Z" fill="white"/>
<path d="M252 131H245C243.356 131 242 129.518 242 128V122C242 120.482 243.356 119 245 119H252C253.644 119 255 120.482 255 122V128C255 129.518 253.644 131 252 131ZM245 120C243.956 120 243 121.036 243 122V128C243 128.964 243.956 130 245 130H252C253.044 130 254 128.964 254 128V122C254 121.036 253.044 120 252 120H245Z" fill="white"/>
<path d="M243 123H238V124H243V123Z" fill="white"/>
<path d="M254 217H230C227.547 217 226 215.434 226 213V200C226 197.566 227.547 196 230 196H254C256.453 196 258 197.566 258 200V213C258 215.434 256.453 217 254 217ZM230 197C228.245 197 227 198.259 227 200V213C227 214.741 228.245 216 230 216H254C255.755 216 257 214.741 257 213V200C257 198.259 255.755 197 254 197H230Z" fill="#66B0F0"/>
<path d="M242 212H234C232.788 212 232 211.247 232 210V204C232 202.753 232.788 202 234 202H242C243.212 202 244 202.753 244 204V210C244 211.247 243.212 212 242 212Z" fill="#66B0F0"/>
<path d="M250 212L247 210C246.314 209.574 246 208.793 246 208V206C246 205.208 246.314 204.427 247 204L250 202C250.597 201.635 251 202.31 251 203V211C251.022 211.671 250.597 212.366 250 212Z" fill="#66B0F0"/>
<path d="M562 286H1C0.640283 286 0 286.226 0 286C0 285.774 0.640283 285 1 285H562C562.36 285 563 285.774 563 286C563 286.226 562.36 286 562 286Z" fill="#3FB1B5"/>
<path d="M182 290V552H167V502C167 497.353 163.638 494 159 494H53C48.3619 494 45 497.353 45 502V552H30V290H182Z" fill="white"/>
<path d="M182 552H166V502C166 497.718 162.271 494 158 494H53C48.7294 494 45 497.718 45 502V552H29V289H182V552ZM167 551H181V290H30V551H44V502C44 497.018 48.0318 492 53 492H158C162.968 492 167 497.018 167 502V551Z" fill="#3FB1B5"/>
<path d="M182 290V359L30 485V290H182Z" fill="#D0F0E4"/>
<path d="M159 366H53C48.2455 366 44 361.772 44 357V310C44 305.228 48.2455 301 53 301H159C163.755 301 168 305.228 168 310V357C168 361.772 163.755 366 159 366ZM53 302C48.9459 302 45 305.931 45 310V357C45 361.069 48.9459 365 53 365H159C163.054 365 167 361.069 167 357V310C167 305.931 163.054 302 159 302H53Z" fill="#3FB1B5"/>
<path d="M133 401H80L78 386H131L133 401Z" fill="#FFCF2D"/>
<path d="M160 378C153.509 378 148 383.367 148 390V402H104V390C104 383.367 109.509 378 116 378H160Z" fill="white"/>
<path d="M149 402H103V389C103 382.103 108.129 377 115 377H160V378C153.826 378 149 382.803 149 389V402ZM104 401H148V389C148 384.076 150.877 380.037 155 378H115C108.826 378 104 382.803 104 389V401Z" fill="#3FB1B5"/>
<path d="M171 387H126C124.624 381.807 120.439 378 115 378H160C165.439 378 169.603 381.807 171 387Z" fill="white"/>
<path d="M172 387H126C124.663 382.139 120.031 378 115 378V377H160C165.583 377 170.493 380.584 172 386V387ZM127 386H170C168.408 381.586 164.734 378 160 378H120C122.993 379.471 125.96 382.695 127 386Z" fill="#3FB1B5"/>
<path d="M159 465H53C48.2455 465 44 460.772 44 456V409C44 404.228 48.2455 400 53 400H159C163.755 400 168 404.228 168 409V456C168 460.772 163.755 465 159 465ZM53 401C48.9459 401 45 404.931 45 409V456C45 460.069 48.9459 464 53 464H159C163.054 464 167 460.069 167 456V409C167 404.931 163.054 401 159 401H53Z" fill="#3FB1B5"/>
<path d="M127 333C126.639 333 127 332.355 127 332C127 328.616 124.437 326 121 326H90C86.5629 326 84 328.616 84 332C84 332.355 84.3607 333 84 333C83.6393 333 83 332.355 83 332C83 327.927 85.8628 325 90 325H121C125.137 325 128 327.927 128 332C128 332.355 127.361 333 127 333Z" fill="#3FB1B5"/>
<path d="M127 432C126.639 432 127 431.355 127 431C127 427.616 124.437 425 121 425H90C86.5629 425 84 427.616 84 431C84 431.355 84.3607 432 84 432C83.6393 432 83 431.355 83 431C83 426.927 85.8628 424 90 424H121C125.137 424 128 426.927 128 431C128 431.355 127.361 432 127 432Z" fill="#3FB1B5"/>
<path d="M541 290H525V552H541V290Z" fill="white"/>
<path d="M541 552H524V289H541V552ZM525 551H540V290H525V551Z" fill="#3FB1B5"/>
<path d="M601 552H273C272.64 552 272 552.226 272 552C272 551.774 272.64 551 273 551H601C601.36 551 602 551.774 602 552C602 552.226 601.36 552 601 552Z" fill="#3FB1B5"/>
<path d="M74 251H65C65 251 52.0276 193.834 40 192C27.9724 190.166 27 212 27 212C27 212 26.9416 178.489 57 183C87.0798 187.511 74 251 74 251Z" fill="white"/>
<path d="M74 251H64C63.9581 250.853 60.7569 236.052 56 222C48.1207 198.749 42.1853 192.483 39 192C36.8206 191.664 34.5926 192.656 33 194C27.4468 198.621 27 211.874 27 212H26C26 211.832 25.7636 207.915 27 203C28.1526 198.442 30.9078 191.369 36 187C41.1761 182.568 48.5759 180.698 57 182C62.4485 182.819 66.71 186.316 70 191C75.2808 198.54 77.5658 211.428 77 228C76.5809 240.287 74.021 249.895 74 250V251ZM65 250H73C73.3982 247.795 75.6438 238.628 76 228C76.3772 216.805 75.3705 201.095 69 192C65.9195 187.589 61.0922 184.756 56 184C47.974 182.782 41.8827 183.82 37 188C35.5331 189.26 34.0478 191.467 33 193C34.7812 191.74 36.6949 190.643 39 191C44.1341 191.798 50.5038 202.845 57 222C61.254 234.581 64.3504 247.396 65 250Z" fill="#3FB1B5"/>
<path d="M70.0001 250C69.6617 250 70.0001 249.36 70.0001 249C69.3021 206.775 60.3612 192.047 53.0001 187C47.4159 183.161 42.0424 184.978 42.0001 185C41.6617 185.127 41.1271 184.339 41.0001 184C40.8732 183.66 40.6617 183.127 41.0001 183C41.2328 182.915 46.8659 181.801 53.0001 186C57.7383 189.266 62.1234 195.432 65.0001 204C68.7018 215.028 70.6829 229.892 71.0001 249C71.0001 249.36 70.3597 250 70.0001 250Z" fill="#3FB1B5"/>
<path d="M99 250H55V286H99V250Z" fill="#FE5244"/>
<path d="M110 269C107.172 270.25 103.145 270.401 100 269C97.6782 267.965 95.7732 266.328 94.0001 264C91.5516 260.766 90.0001 256.498 90.0001 251C90.0001 237.676 79.2639 229.364 75.0001 247C74.7046 248.229 74.2323 249.512 74.0001 251C74.0001 250.957 73.979 250.065 74.0001 250C74.0845 248.9 74.0291 245.924 75.0001 242C75.7178 239.089 77.3959 235.997 79.0001 233C79.8022 231.512 80.9025 230.272 82.0001 229C84.8286 225.68 88.702 223 94.0001 223C103.752 223 111.277 234.315 114 246C116.385 256.155 115.467 266.564 110 269Z" fill="white"/>
<path d="M105 270C103.221 270 100.758 269.793 99 269C96.5094 267.886 94.7581 266.314 93 264C90.2583 260.379 89 255.164 89 250C89 243.957 85.872 237.471 82 237C79.1955 236.657 76.5488 239.657 75 246C74.6861 247.329 74.2302 248.629 74 250H73C73 249.957 72.9791 250.107 73 250C73.0837 248.8 73.0373 244.921 74 241C74.8581 237.529 76.5768 234.657 78 232C78.9 230.35 79.9535 229.2 81 228C84.286 224.121 88.0607 222 93 222C103.046 222 111.258 234.171 114 246C115.214 251.207 115.628 255.907 115 260C114.309 264.607 111.763 267.757 109 269C107.661 269.6 106.549 270 105 270ZM82 235C82.1884 235 81.8326 235.979 82 236C86.1859 236.514 90 242.457 90 250C90 254.886 91.4257 259.593 94 263C95.6325 265.143 97.7187 266.971 100 268C102.993 269.329 106.426 269.136 109 268C113.688 265.9 115.512 256.779 113 246C111.598 239.936 108.098 234.093 105 230C101.505 225.393 97.2696 223 93 223C88.4583 223 85.0348 225.421 82 229C81.0163 230.157 79.8372 231.414 79 233C77.9535 234.971 76.7326 236.557 76 239C76.3558 238.4 76.6233 238.471 77 238C78.486 236.136 80.8698 235 82 235Z" fill="#3FB1B5"/>
<path d="M107 269C106.682 269 107.042 268.34 107 268C103.909 238.912 96.356 230.419 90.9998 228C86.2151 225.836 82.0421 228.979 81.9998 229C81.7246 229.212 81.2115 229.276 80.9998 229C80.7881 228.724 80.7246 228.212 80.9998 228C81.1903 227.873 86.5588 224.539 91.9998 227C95.5988 228.634 98.4381 232.314 101 238C104.218 245.108 106.602 254.867 108 268C108.042 268.34 107.36 268.958 107 269C107.021 269 107 269.021 107 269Z" fill="#3FB1B5"/>
<path d="M26 211C26 214.474 25.4326 228.39 38 229C50.5674 229.611 52 210 52 210C52 210 45.8265 192.726 39 191C27.4555 188.074 26 211 26 211Z" fill="#3FB1B5"/>
<path d="M89 250H74C77.4631 227.31 89 235.837 89 250Z" fill="#3FB1B5"/>
<path opacity="0.4" d="M353 85V225C353 232.509 346.486 239 339 239H180C169.977 252.812 149.108 252.876 139 239C134.982 238.725 131.284 236.025 129 233L133 230L227 149L316 71H339C346.486 71 353 77.5123 353 85Z" fill="white"/>
<path opacity="0.4" d="M109 268C106.232 269.286 103.101 269.393 100 268V286H67L93 263L100 257L104 253L114 245C116.664 256.702 114.849 265.235 109 268Z" fill="white"/>
<path d="M390 362V480H363L346 432L321 362H390Z" fill="#A0505A"/>
<path d="M321 362H390V400L329 385L321 362Z" fill="#73325A"/>
<path d="M391 480H363L345 430L346 431C346.042 431.021 349.9 433.076 357 434C363.553 434.861 374.52 434.925 390 431H391V480ZM364 479H390V432C374.667 435.799 363.574 435.861 357 435C352.232 434.37 348.659 433.672 347 433L364 479Z" fill="white"/>
<path d="M360 443C358.071 443 357 440.929 357 439C357 437.071 358.071 436 360 436C361.929 436 364 437.071 364 439C364 440.929 361.929 443 360 443ZM360 437C358.727 437 358 437.727 358 439C358 440.273 358.727 442 360 442C361.273 442 363 440.273 363 439C363 437.727 361.273 437 360 437Z" fill="white"/>
<path d="M375 453C373.071 453 371 451.929 371 450C371 448.071 373.071 446 375 446C376.929 446 378 448.071 378 450C378 451.929 376.929 453 375 453ZM375 447C373.727 447 372 448.727 372 450C372 451.273 373.727 452 375 452C376.273 452 377 451.273 377 450C377 448.727 376.273 447 375 447Z" fill="white"/>
<path d="M386 442C384.071 442 382 440.929 382 439C382 437.071 384.071 435 386 435C387.929 435 389 437.071 389 439C389 440.929 387.929 442 386 442ZM386 436C384.727 436 383 437.727 383 439C383 440.273 384.727 441 386 441C387.273 441 388 440.273 388 439C388 437.727 387.273 436 386 436Z" fill="white"/>
<path d="M382 464C380.071 464 378 462.929 378 461C378 459.071 380.071 457 382 457C383.929 457 385 459.071 385 461C385 462.929 383.929 464 382 464ZM382 458C380.727 458 379 459.727 379 461C379 462.273 380.727 463 382 463C383.273 463 384 462.273 384 461C384 459.727 383.273 458 382 458Z" fill="white"/>
<path d="M364 459C362.071 459 360 457.929 360 456C360 454.071 362.071 452 364 452C365.929 452 367 454.071 367 456C367 457.929 365.929 459 364 459ZM364 453C362.727 453 361 454.727 361 456C361 457.273 362.727 458 364 458C365.273 458 366 457.273 366 456C366 454.727 365.273 453 364 453Z" fill="white"/>
<path d="M369 475C367.071 475 365 473.929 365 472C365 470.071 367.071 468 369 468C370.929 468 372 470.071 372 472C372 473.929 370.929 475 369 475ZM369 469C367.727 469 366 470.727 366 472C366 473.273 367.727 474 369 474C370.273 474 371 473.273 371 472C371 470.727 370.273 469 369 469Z" fill="white"/>
<path d="M403 501L384 540C381.355 546.224 375.792 550 369 550H345C338.906 550 335.673 543.612 338 538L361 481C362.333 477.498 365.059 474.047 368 472C370.962 469.953 374.255 469 378 469C383.205 469 388.572 472.097 392 476L400 485C403.83 489.346 405.243 495.704 403 501Z" fill="#66B0F0"/>
<path d="M404 502L385 541C382.363 547.287 376.772 551 370 551H344C341.658 551 340.781 550.025 340 548H346C352.772 548 358.363 543.287 361 537L383 492C385.004 487.78 388.359 485 393 485C399.055 485 404.156 489.331 405 495C405.084 497.174 404.865 499.912 404 502Z" fill="white"/>
<path d="M369 551H344C341.673 551 339.986 549.568 339 547C338.916 546.809 338.895 547.17 339 547C339.126 546.83 339.791 546 340 546H345C351.478 546 357.484 542.048 360 536C360 536 359.979 536 360 536L381 491C383.097 486.586 388.178 484 393 484C399.059 484 404.078 488.824 405 495C405 495.021 405 494.979 405 495C405.084 497.292 404.881 498.857 404 501C404 501 404.021 501 404 501L385 540C382.275 546.515 375.982 551 369 551ZM341 548C341.797 549.507 342.47 550 344 550H369C375.478 550 381.484 546.048 384 540C384 540 383.979 540 384 540L403 501C403.797 499.048 404.084 497.101 404 495C403.162 489.482 398.43 485 393 485C388.66 485 384.887 488.031 383 492L361 537C358.275 543.515 351.982 548 345 548H341Z" fill="#66B0F0"/>
<path d="M399 483C396.744 481.764 394.384 481 392 481C387.424 481 382.979 483.866 381 488L358 535C355.148 541.756 349.343 546 342 546H338C337.787 545.595 337.149 545.448 337 545H342C348.832 545 354.34 540.287 357 534L380 488C382.192 483.418 386.934 480 392 480C393.618 480 395.34 480.425 397 481L399 483Z" fill="white"/>
<path d="M321 362L316 431L313 462C313 462 297.775 479.55 280 469L272 431L253 345C247.915 321.861 264.135 299.131 288 296L321 362Z" fill="#A0505A"/>
<path d="M292 473C288.14 473 284.356 472.552 280 470V469L271 430H272C292.423 435.94 315.763 430.063 316 430H317L314 463C313.827 463.167 310.233 467.03 304 470C300.873 471.464 296.55 473 292 473ZM281 469C288.16 473.099 295.107 472.744 303 469C308.348 466.448 312.245 462.774 313 462L316 432C314.038 432.439 308.578 433.414 302 434C294.43 434.69 283.567 434.844 273 432L281 469Z" fill="white"/>
<path d="M292 450C289.795 450 288 447.929 288 446C288 444.071 289.795 443 292 443C294.205 443 296 444.071 296 446C296 447.929 294.205 450 292 450ZM292 444C290.545 444 289 444.727 289 446C289 447.273 290.545 449 292 449C293.455 449 295 447.273 295 446C295 444.727 293.455 444 292 444Z" fill="white"/>
<path d="M312 445C309.795 445 308 443.929 308 442C308 440.071 309.795 438 312 438C314.205 438 316 440.071 316 442C316 443.929 314.205 445 312 445ZM312 439C310.545 439 309 440.727 309 442C309 443.273 310.545 444 312 444C313.455 444 315 443.273 315 442C315 440.727 313.455 439 312 439Z" fill="white"/>
<path d="M280 441C277.795 441 276 439.929 276 438C276 436.071 277.795 434 280 434C282.205 434 284 436.071 284 438C284 439.929 282.205 441 280 441ZM280 435C278.545 435 277 436.727 277 438C277 439.273 278.545 440 280 440C281.455 440 283 439.273 283 438C283 436.727 281.455 435 280 435Z" fill="white"/>
<path d="M289 467C286.795 467 285 464.929 285 463C285 461.071 286.795 460 289 460C291.205 460 293 461.071 293 463C293 464.929 291.205 467 289 467ZM289 461C287.545 461 286 461.727 286 463C286 464.273 287.545 466 289 466C290.455 466 292 464.273 292 463C292 461.727 290.455 461 289 461Z" fill="white"/>
<path d="M303 461C300.795 461 299 459.929 299 458C299 456.071 300.795 454 303 454C305.205 454 307 456.071 307 458C307 459.929 305.205 461 303 461ZM303 455C301.545 455 300 456.727 300 458C300 459.273 301.545 460 303 460C304.455 460 306 459.273 306 458C306 456.727 304.455 455 303 455Z" fill="white"/>
<path d="M334 469L313 551H307C306.701 551 306.299 551.021 306 551C301.087 550.556 297.047 546.845 296 542L280 469C297.772 479.641 313 462 313 462L334 469Z" fill="#66B0F0"/>
<path d="M335 512C339.348 489.31 340.497 471.397 333 470C325.503 468.603 311.348 484.31 307 507C302.652 529.691 305.503 549.603 313 551C320.497 552.419 330.652 534.712 335 512Z" fill="white"/>
<path d="M314 551C313.678 551 313.322 551.063 313 551C309.094 550.282 305.052 544.698 304 536C302.991 527.618 303.875 517.062 306 506C308.017 495.55 313.57 485.22 319 478C323.979 471.392 328.944 468.24 333 469C336.906 469.718 338.893 473.766 339 482C339.086 488.713 338.425 498.354 336 511C334.283 519.909 331.198 529.054 328 536C324.845 542.861 321.369 547.741 318 550C316.626 550.908 315.309 551 314 551ZM332 470C328.566 470 324.228 473.384 320 479C314.677 486.072 308.996 495.74 307 506C304.897 516.957 305.013 527.745 306 536C306.966 543.98 309.738 549.388 313 550C314.245 550.232 315.541 549.971 317 549C323.589 544.587 330.63 528.586 334 511C336.425 498.46 338.086 488.629 338 482C337.914 474.569 336.155 470.591 333 470C332.721 469.936 332.3 470 332 470Z" fill="#66B0F0"/>
<path d="M305 506C302.722 517.804 301.915 529.084 303 538C303.781 544.411 304.743 548.792 307 551C306.696 551 306.304 551.021 306 551C303.96 548.368 302.738 543.944 302 538C300.893 528.978 300.678 516.931 303 505C305.192 493.706 310.12 483.961 316 476C319.515 471.245 322.637 467.507 326 466L328 467C320.253 469.25 309.232 484.155 305 506Z" fill="white"/>
<path d="M288 296L385 286L481 313L480 326C478.688 346.267 461.269 362 441 362H321L288 296Z" fill="#FE5244"/>
<path d="M437 354H317C316.64 354 316 353.359 316 353C316 352.641 316.64 353 317 353H437C446.184 353 455.382 347.463 463 339C470.216 330.98 475 321.759 475 313C475 312.641 474.64 312 475 312C475.36 312 476 312.641 476 313C476 322.075 471.406 331.748 464 340C456.128 348.695 446.544 354 437 354Z" fill="white"/>
<path d="M427 343H312C311.641 343 311 342.358 311 342C311 341.642 311.641 342 312 342H427C434.998 342 443.015 337.82 450 331C456.563 324.601 461.544 316.998 463 309C463.063 308.663 462.662 307.937 463 308C463.338 308.063 464.063 308.663 464 309C461.024 325.186 445.17 343 427 343Z" fill="white"/>
<path d="M417 332.001H306C305.64 332.001 305 331.352 305 331.001C305 330.649 305.64 331.001 306 331.001H417C432.246 331.001 446.278 316.592 451 304.001C451.127 303.67 451.682 303.877 452 304.001C452.339 304.125 452.127 304.691 452 305.001C449.374 312.01 445.014 319.039 439 324.001C432.457 329.397 424.199 332.001 417 332.001Z" fill="white"/>
<path d="M412 320.001H301C300.641 320.001 300 319.347 300 319.001C300 318.655 300.641 319.001 301 319.001H412C422.465 319.001 433.784 311.567 441 301.001C441.19 300.716 441.705 300.818 442 301.001C442.295 301.184 442.19 301.716 442 302.001C434.531 312.913 422.887 320.001 412 320.001Z" fill="white"/>
<path d="M406 310H295C294.642 310 294 309.351 294 309C294 308.65 294.642 309 295 309H406C414.052 309 422.318 304.577 429 298C429.253 297.753 429.768 297.753 430 298C430.253 298.247 430.253 298.773 430 299C423.086 305.825 414.389 310 406 310Z" fill="white"/>
<path d="M401 299H290C289.642 299 289 298.316 289 298C289 297.685 289.642 298 290 298H401C405.736 298 410.327 296.319 415 294C415.295 293.852 415.832 293.741 416 294C416.168 294.26 416.295 294.852 416 295C411.138 297.43 405.946 299 401 299Z" fill="white"/>
<path d="M320 363C319.773 363 320.103 363.234 320 363L287 296C286.856 295.681 286.712 295.149 287 295C287.309 294.851 287.856 294.702 288 295L321 362C321.144 362.319 321.288 362.851 321 363C320.918 363.064 320.103 363 320 363Z" fill="white"/>
<path d="M487 224C477.773 226.641 467.966 225.836 467 223C466.099 220.293 470.739 216.074 479 213C479.408 212.848 479.571 213.151 480 213C482.489 212.155 484.661 211.281 487 211C493.931 210.112 500.292 211.878 501 214C501.966 216.836 496.764 221.206 487 224Z" fill="white"/>
<path d="M475 226C470.362 226 466.681 224.828 466 223C464.851 219.785 470.171 214.732 478 212C478.404 211.859 478.575 212.14 479 212C481.404 211.236 484.511 210.281 487 210C494.042 209.156 500.149 210.609 501 213C501.298 213.783 500.553 214.995 500 216C498.213 219.214 492.681 222.211 486 224C482.149 225.004 478.319 226 475 226ZM491 211C489.702 211 488.553 211.819 487 212C484.596 212.281 482.319 212.256 480 213C479.575 213.14 479.383 213.859 479 214C475.298 215.285 472 216.171 470 218C468.319 219.526 466.638 221.975 467 223C467.702 224.948 476.575 225.511 486 223C491.213 221.613 497.149 218.355 499 215C499.383 214.296 500.17 213.482 500 213C499.617 211.935 495.808 211 491 211Z" fill="#3FB1B5"/>
<path d="M480 286H477L467 224V222C467.457 219.176 472.017 215.591 480 213C483.981 211.705 487.628 211.064 491 211L494 220L495 221L505 250C511.526 267.391 498.99 286 480 286Z" fill="#A0505A"/>
<path d="M494 221C491.792 222.385 489.407 224.035 486 225C478.178 227.203 469.544 225.888 467 224V222C467.442 219.209 472.283 215.56 480 213C483.848 211.72 486.741 211.063 490 211L494 221Z" fill="#73325A"/>
<path d="M367 235L356 263C350.516 276.538 336.736 285 322 285H173V271C173 267.726 174.909 265.154 178 264L193 258C194.397 257.475 196.518 258 198 258H215L314 248L331 209L367 235Z" fill="#A0505A"/>
<path d="M174 277C173.642 277 173 276.341 173 276C173 273.372 174.407 270.942 177 270L189 266C189.316 265.879 189.874 265.699 190 266C190.126 266.3 190.316 266.879 190 267L178 271C175.913 271.762 174 273.874 174 276C174 276.341 174.358 277 174 277Z" fill="#73325A"/>
<path d="M174 284C173.642 284 173 283.341 173 283C173 280.372 174.407 277.942 177 277L189 273C189.316 272.879 189.874 272.699 190 273C190.126 273.3 190.316 273.879 190 274L178 278C175.913 278.762 174 280.874 174 283C174 283.341 174.358 284 174 284Z" fill="#73325A"/>
<path d="M178 285C177.757 285 177.081 285.211 177 285C176.878 284.719 176.676 284.088 177 284L189 280C189.324 279.895 189.898 279.719 190 280C190.121 280.281 190.324 280.913 190 281L178 285C178.061 285 177.939 285.018 178 285Z" fill="#73325A"/>
<path d="M188 261C188 261 198.325 233.538 202 234C205.675 234.462 193 259 193 259L188 261Z" fill="#FE5244"/>
<path d="M331 209L328 215L360 251L367 235L331 209Z" fill="#73325A"/>
<path d="M467 224L481 312L384 285L367 235L322 202L338 183C352.013 166.334 372.197 157 394 157H425C451.968 157 477.066 171.385 490 195L500 213C500 213 497.32 208.543 481 213C466.627 216.95 467 224 467 224Z" fill="#3FB1B5"/>
<path d="M367 235C366.963 235 366.036 235.02 366 235C365.708 234.917 365.927 234.329 366 234L371 212C371.073 211.67 371.708 211.917 372 212C372.292 212.082 372.073 212.67 372 213L367 235C367.255 235 366.945 235.288 367 235Z" fill="white"/>
<path d="M478 293C477.697 293 478.065 292.319 478 292L461 191C460.935 190.661 461.632 190.043 462 190C462.346 189.936 461.957 190.639 462 191L479 292C479.065 292.34 478.368 292.958 478 293C478.043 293 477.978 293 478 293Z" fill="white"/>
<path d="M480 313C479.936 313 480.063 313.021 480 313L383 285C382.662 284.896 382.915 284.335 383 284C383.105 283.665 383.662 283.917 384 284L481 312C481.338 312.105 481.084 312.665 481 313C480.915 313.272 480.274 313 480 313Z" fill="white"/>
<path d="M390 143V157H415V132L390 143Z" fill="#A0505A"/>
<path d="M419 128C419 131.774 415.931 135 412 135H411C410.017 138.732 401.202 143 395 143H388C380.094 143 372.711 136.506 374 129V127L372 125C370.777 124.329 370.148 123.09 371 122L376 116L377 111C377.808 106.241 382.676 101.908 387 100C388.703 118.429 405.523 120.748 410 121H412C415.931 121 419 124.226 419 128Z" fill="#A0505A"/>
<path d="M408 130C407.625 130 407 129.375 407 129C407 125.511 409.511 123 413 123C413.375 123 414 123.625 414 124C414 124.375 413.375 124 413 124C410.24 124 408 126.24 408 129C408 129.375 408.375 130 408 130Z" fill="#73325A"/>
<path d="M385 121C385.552 121 386 120.381 386 119C386 117.619 385.552 116 385 116C384.448 116 384 117.619 384 119C384 120.381 384.448 121 385 121Z" fill="#73325A"/>
<path d="M388 115C387.827 115 388.115 115.157 388 115C385.445 111.383 383.038 111 383 111C382.673 111.039 382.038 111.334 382 111C381.962 110.685 382.673 110.039 383 110C383.115 109.98 386.061 109.852 389 114C389.192 114.255 389.269 114.803 389 115C388.904 115.079 388.115 115 388 115Z" fill="#73325A"/>
<path d="M408 121H410C413.9 121 417 124.214 417 128C417 131.786 413.9 135 410 135L409 136C401.98 140.375 391.616 157.821 394 170C396.686 183.694 408.646 186.104 420 184C431.353 181.897 439.686 175.715 437 162C436.696 160.38 436.628 158.599 436 157C436.195 157.063 435.805 156.937 436 157C449.65 160.618 467.58 161.349 472 151C476.42 140.651 475.282 130.343 462 125C454.286 121.887 442.125 121.855 434 124C438.095 110.18 431.368 94.5357 418 93.0001C397.004 90.5811 385.325 99.7687 385 100C384.978 102.44 386.766 119.801 408 121Z" fill="#73325A"/>
<path d="M436 158C435.696 158 436.043 157.292 436 157C433.699 145.438 423.108 139.063 423 139C422.826 138.896 423 139.209 423 139C423 138.792 422.826 138.125 423 138C429.728 133.438 432.871 126.5 434 123C434.108 122.667 434.674 122.896 435 123C435.347 123.104 435.108 123.688 435 124C433.871 127.542 431.533 134.25 425 139C427.452 140.771 434.959 146.688 437 157C437.065 157.334 436.347 157.938 436 158C436.043 158 435.956 158.021 436 158Z" fill="white"/>
<path d="M439 124H434C433.645 124 433 123.354 433 123V118C433 114.771 435.771 112 439 112C442.228 112 445 114.771 445 118C445.02 119.542 444.104 120.896 443 122C441.895 123.104 440.583 124 439 124ZM434 123H439C440.249 123 441.125 121.896 442 121C442.854 120.125 444 119.208 444 118C444 115.458 441.541 113 439 113C436.458 113 434 115.458 434 118V123Z" fill="#FE5244"/>
<path d="M444.999 133C442.527 133 438.409 132.079 436.999 130L432.999 124C432.791 123.697 432.676 123.173 432.999 123L438.999 119C440.663 118.026 444.082 117.589 445.999 118C447.917 118.412 449.936 119.441 450.999 121V122C452.062 123.56 452.439 125.202 451.999 127C451.56 128.798 450.663 131.004 448.999 132H447.999C446.798 132.672 446.363 133 444.999 133ZM434.999 124L437.999 129C439.756 131.599 445.18 132.646 447.999 131V130C449.363 129.199 450.653 128.473 450.999 127C451.346 125.527 450.854 124.278 449.999 123L448.999 122C448.144 120.722 447.571 119.325 445.999 119C444.428 118.675 441.363 119.199 439.999 120L434.999 124Z" fill="#FE5244"/>
<path d="M408 150C407.844 150 408.156 150.021 408 150C406.328 149.871 405.092 149.223 404 148C402.908 146.798 401.888 144.588 402 143C402.111 141.39 402.729 140.051 404 139L408 135C408.133 134.871 408.821 134.978 409 135C409.178 135 408.888 134.871 409 135L413 140C414.092 141.223 415.133 142.39 415 144C414.866 145.61 414.27 146.948 413 148V149C411.908 149.923 409.515 150 408 150ZM409 137L405 140C403.997 140.837 403.089 141.712 403 143C402.91 144.266 404.153 146.055 405 147C405 147 404.977 147 405 147C405.846 147.944 406.685 148.892 408 149C409.314 149.086 410.997 148.815 412 148V147C412.98 146.184 413.888 145.266 414 144C414.089 142.734 413.846 141.966 413 141L409 137Z" fill="#FE5244"/>
<path d="M418.999 148C415.746 148 410.929 146.023 409.999 143L407.999 136C407.906 135.657 407.628 135.107 407.999 135L414.999 133C416.905 132.507 420.28 133.121 421.999 134C423.719 134.9 425.465 136.241 425.999 138V139C426.534 140.758 425.952 142.413 424.999 144C424.024 145.586 422.905 147.507 420.999 148H419.999C419.326 148.193 419.65 148 418.999 148ZM410.999 142C411.906 144.937 416.816 146.814 419.999 146H420.999C422.556 145.592 423.209 145.286 423.999 144C424.789 142.713 424.418 140.436 423.999 139C423.558 137.563 423.394 135.729 421.999 135C420.605 134.271 416.556 134.614 414.999 135L408.999 136L410.999 142Z" fill="#FE5244"/>
<path d="M316 551C315.958 551 316.042 551.021 316 551C315.663 550.936 314.916 550.36 315 550L352 378C352.063 377.661 351.642 376.915 352 377C352.337 377.063 353.084 377.64 353 378L316 550C315.937 550.296 316.295 551 316 551Z" fill="#FFCF2D"/>
<path d="M483 551C482.71 551 483.062 550.296 483 550L446 378C445.938 377.662 445.668 377.085 446 377C446.332 376.937 446.917 376.662 447 377L484 550C484.062 550.339 484.332 550.916 484 551C483.938 551.022 483.042 551 483 551Z" fill="#FFCF2D"/>
<path d="M474 512H324C323.641 512 323 512.226 323 512C323 511.774 323.641 511 324 511H474C474.359 511 475 511.774 475 512C475 512.226 474.359 512 474 512Z" fill="#FFCF2D"/>
<path d="M476 379H323C321.079 379 320 377.012 320 375V366C320 363.988 321.079 362 323 362H476C477.921 362 479 363.988 479 366V375C479 377.012 477.921 379 476 379Z" fill="white"/>
<path d="M475 379H323C320.724 379 319 377.345 319 375V365C319 362.655 320.724 361 323 361H475C477.276 361 479 362.655 479 365V375C479 377.345 477.276 379 475 379ZM323 362C321.44 362 320 363.393 320 365V375C320 376.607 321.44 378 323 378H475C476.56 378 478 376.607 478 375V365C478 363.393 476.56 362 475 362H323Z" fill="#66B0F0"/>
</svg>
