<svg width="157" height="137" viewBox="0 0 157 137" fill="none" xmlns="http://www.w3.org/2000/svg">
<g opacity="0.8">
<path d="M5 40C5 41.4286 4.42857 43 3 43C1.57143 43 0 41.4286 0 40C0 38.5714 1.57143 38 3 38C4.42857 38 5 38.6905 5 40Z" fill="white"/>
<path d="M28 40C28 41.4286 27.4286 43 26 43C24.5714 43 23 41.4286 23 40C23 38.5714 24.5714 38 26 38C27.3095 38 28 38.6905 28 40Z" fill="white"/>
<path d="M50 40C50 41.4286 48.4286 43 47 43C45.5714 43 45 41.4286 45 40C45 38.5714 45.5714 38 47 38C48.4286 38 50 38.6905 50 40Z" fill="white"/>
<path d="M73 40C73 41.4286 72.4286 43 71 43C69.5714 43 68 41.4286 68 40C68 38.5714 69.5714 38 71 38C72.4286 38 73 38.6905 73 40Z" fill="white"/>
<path d="M96 40C96 41.4286 95.4286 43 94 43C92.5714 43 91 41.4286 91 40C91 38.5714 92.5714 38 94 38C95.3095 38 96 38.6905 96 40Z" fill="white"/>
<path d="M119 40C119 41.4286 118.429 43 117 43C115.571 43 114 41.4286 114 40C114 38.5714 115.571 38 117 38C118.429 38 119 38.6905 119 40Z" fill="white"/>
<path d="M141 40C141 41.4286 140.429 43 139 43C137.571 43 136 41.4286 136 40C136 38.5714 137.571 38 139 38C140.429 38 141 38.6905 141 40Z" fill="white"/>
<path d="M5 59C5 60.4286 4.42857 61 3 61C1.57143 61 0 60.4286 0 59C0 57.5714 1.57143 56 3 56C4.42857 56 5 57.5714 5 59Z" fill="white"/>
<path d="M28 59C28 60.4286 27.4286 61 26 61C24.5714 61 23 60.4286 23 59C23 57.5714 24.5714 56 26 56C27.3095 56 28 57.5714 28 59Z" fill="white"/>
<path d="M50 59C50 60.4286 48.4286 61 47 61C45.5714 61 45 60.4286 45 59C45 57.5714 45.5714 56 47 56C48.4286 56 50 57.5714 50 59Z" fill="white"/>
<path d="M73 59C73 60.4286 72.4286 61 71 61C69.5714 61 68 60.4286 68 59C68 57.5714 69.5714 56 71 56C72.4286 56 73 57.5714 73 59Z" fill="white"/>
<path d="M96 59C96 60.4286 95.4286 61 94 61C92.5714 61 91 60.4286 91 59C91 57.5714 92.5714 56 94 56C95.3095 56 96 57.5714 96 59Z" fill="white"/>
<path d="M119 59C119 60.4286 118.429 61 117 61C115.571 61 114 60.4286 114 59C114 57.5714 115.571 56 117 56C118.429 56 119 57.5714 119 59Z" fill="white"/>
<path d="M141 59C141 60.4286 140.429 61 139 61C137.571 61 136 60.4286 136 59C136 57.5714 137.571 56 139 56C140.429 56 141 57.5714 141 59Z" fill="white"/>
<path d="M5 3C5 4.42857 4.42857 5 3 5C1.57143 5 0 4.42857 0 3C0 1.57143 1.57143 0 3 0C4.42857 0 5 1.57143 5 3Z" fill="white"/>
<path d="M28 3C28 4.42857 27.4286 5 26 5C24.5714 5 23 4.42857 23 3C23 1.57143 24.5714 0 26 0C27.3095 0 28 1.57143 28 3Z" fill="white"/>
<path d="M50 3C50 4.42857 48.4286 5 47 5C45.5714 5 45 4.42857 45 3C45 1.57143 45.6905 0 47 0C48.4286 0 50 1.57143 50 3Z" fill="white"/>
<path d="M73 3C73 4.42857 72.4286 5 71 5C69.5714 5 68 4.42857 68 3C68 1.57143 69.6905 0 71 0C72.3095 0 73 1.57143 73 3Z" fill="white"/>
<path d="M96 3C96 4.42857 95.4286 5 94 5C92.5714 5 91 4.42857 91 3C91 1.57143 92.5714 0 94 0C95.3095 0 96 1.57143 96 3Z" fill="white"/>
<path d="M119 3C119 4.42857 118.429 5 117 5C115.571 5 114 4.42857 114 3C114 1.57143 115.571 0 117 0C118.429 0 119 1.57143 119 3Z" fill="white"/>
<path d="M141 3C141 4.42857 140.429 5 139 5C137.571 5 136 4.42857 136 3C136 1.57143 137.571 0 139 0C140.429 0 141 1.57143 141 3Z" fill="white"/>
<path d="M5 22C5 23.4286 4.42857 24 3 24C1.57143 24 0 23.3095 0 22C0 20.5714 1.57143 19 3 19C4.42857 19 5 20.5714 5 22Z" fill="white"/>
<path d="M28 22C28 23.4286 27.4286 24 26 24C24.5714 24 23 23.4286 23 22C23 20.5714 24.5714 19 26 19C27.3095 19 28 20.5714 28 22Z" fill="white"/>
<path d="M50 22C50 23.4286 48.4286 24 47 24C45.5714 24 45 23.4286 45 22C45 20.5714 45.5714 19 47 19C48.4286 19 50 20.5714 50 22Z" fill="white"/>
<path d="M73 22C73 23.4286 72.4286 24 71 24C69.5714 24 68 23.4286 68 22C68 20.5714 69.5714 19 71 19C72.4286 19 73 20.5714 73 22Z" fill="white"/>
<path d="M96 22C96 23.4286 95.4286 24 94 24C92.5714 24 91 23.4286 91 22C91 20.5714 92.5714 19 94 19C95.3095 19 96 20.5714 96 22Z" fill="white"/>
<path d="M119 22C119 23.4286 118.429 24 117 24C115.571 24 114 23.4286 114 22C114 20.5714 115.571 19 117 19C118.429 19 119 20.5714 119 22Z" fill="white"/>
<path d="M141 22C141 23.4286 140.429 24 139 24C137.571 24 136 23.4286 136 22C136 20.5714 137.571 19 139 19C140.429 19 141 20.5714 141 22Z" fill="white"/>
<path d="M5 78C5 79.4286 4.42857 80 3 80C1.57143 80 0 79.4286 0 78C0 76.5714 1.57143 75 3 75C4.42857 75 5 76.6905 5 78Z" fill="white"/>
<path d="M28 78C28 79.4286 27.4286 80 26 80C24.5714 80 23 79.4286 23 78C23 76.5714 24.5714 75 26 75C27.3095 75 28 76.6905 28 78Z" fill="white"/>
<path d="M50 78C50 79.4286 48.4286 80 47 80C45.5714 80 45 79.4286 45 78C45 76.5714 45.5714 75 47 75C48.4286 75 50 76.6905 50 78Z" fill="white"/>
<path d="M73 78C73 79.4286 72.4286 80 71 80C69.5714 80 68 79.4286 68 78C68 76.5714 69.5714 75 71 75C72.4286 75 73 76.6905 73 78Z" fill="white"/>
<path d="M96 78C96 79.4286 95.4286 80 94 80C92.5714 80 91 79.4286 91 78C91 76.5714 92.5714 75 94 75C95.3095 75 96 76.6905 96 78Z" fill="white"/>
<path d="M119 78C119 79.4286 118.429 80 117 80C115.571 80 114 79.4286 114 78C114 76.5714 115.571 75 117 75C118.429 75 119 76.6905 119 78Z" fill="white"/>
<path d="M141 78C141 79.4286 140.429 80 139 80C137.571 80 136 79.4286 136 78C136 76.5714 137.571 75 139 75C140.429 75 141 76.6905 141 78Z" fill="white"/>
<path d="M5 97C5 98.4286 4.42857 99 3 99C1.57143 99 0 98.4286 0 97C0 95.5714 1.57143 94 3 94C4.42857 94 5 95.5714 5 97Z" fill="white"/>
<path d="M28 97C28 98.4286 27.4286 99 26 99C24.5714 99 23 98.4286 23 97C23 95.5714 24.5714 94 26 94C27.3095 94 28 95.5714 28 97Z" fill="white"/>
<path d="M50 97C50 98.4286 48.4286 99 47 99C45.5714 99 45 98.4286 45 97C45 95.5714 45.5714 94 47 94C48.4286 94 50 95.5714 50 97Z" fill="white"/>
<path d="M71 99C72.3807 99 73 98.3807 73 97C73 95.6193 72.3807 94 71 94C69.6193 94 68 95.6193 68 97C68 98.3807 69.6193 99 71 99Z" fill="white"/>
<path d="M96 97C96 98.4286 95.4286 99 94 99C92.5714 99 91 98.4286 91 97C91 95.5714 92.5714 94 94 94C95.3095 94 96 95.5714 96 97Z" fill="white"/>
<path d="M119 97C119 98.4286 118.429 99 117 99C115.571 99 114 98.4286 114 97C114 95.5714 115.571 94 117 94C118.429 94 119 95.5714 119 97Z" fill="white"/>
<path d="M141 97C141 98.4286 140.429 99 139 99C137.571 99 136 98.4286 136 97C136 95.5714 137.571 94 139 94C140.429 94 141 95.5714 141 97Z" fill="white"/>
<path d="M5 116C5 117.429 4.42857 118 3 118C1.57143 118 0 117.429 0 116C0 114.571 1.57143 113 3 113C4.42857 113 5 114.571 5 116Z" fill="white"/>
<path d="M28 116C28 117.429 27.4286 118 26 118C24.5714 118 23 117.429 23 116C23 114.571 24.5714 113 26 113C27.3095 113 28 114.571 28 116Z" fill="white"/>
<path d="M50 116C50 117.429 48.4286 118 47 118C45.5714 118 45 117.429 45 116C45 114.571 45.5714 113 47 113C48.4286 113 50 114.571 50 116Z" fill="white"/>
<path d="M73 116C73 117.429 72.4286 118 71 118C69.5714 118 68 117.429 68 116C68 114.571 69.5714 113 71 113C72.4286 113 73 114.571 73 116Z" fill="white"/>
<path d="M96 116C96 117.429 95.4286 118 94 118C92.5714 118 91 117.429 91 116C91 114.571 92.5714 113 94 113C95.3095 113 96 114.571 96 116Z" fill="white"/>
<path d="M119 116C119 117.429 118.429 118 117 118C115.571 118 114 117.429 114 116C114 114.571 115.571 113 117 113C118.429 113 119 114.571 119 116Z" fill="white"/>
<path d="M141 116C141 117.429 140.429 118 139 118C137.571 118 136 117.429 136 116C136 114.571 137.571 113 139 113C140.429 113 141 114.571 141 116Z" fill="white"/>
<path d="M5 135C5 136.429 4.42857 137 3 137C1.57143 137 0 136.429 0 135C0 133.571 1.57143 132 3 132C4.42857 132 5 133.69 5 135Z" fill="white"/>
<path d="M28 135C28 136.429 27.4286 137 26 137C24.5714 137 23 136.429 23 135C23 133.571 24.5714 132 26 132C27.3095 132 28 133.69 28 135Z" fill="white"/>
<path d="M50 135C50 136.429 48.4286 137 47 137C45.5714 137 45 136.429 45 135C45 133.571 45.5714 132 47 132C48.4286 132 50 133.69 50 135Z" fill="white"/>
<path d="M73 135C73 136.429 72.4286 137 71 137C69.5714 137 68 136.429 68 135C68 133.571 69.5714 132 71 132C72.4286 132 73 133.69 73 135Z" fill="white"/>
<path d="M96 135C96 136.429 95.4286 137 94 137C92.5714 137 91 136.429 91 135C91 133.571 92.5714 132 94 132C95.3095 132 96 133.69 96 135Z" fill="white"/>
<path d="M119 135C119 136.429 118.429 137 117 137C115.571 137 114 136.429 114 135C114 133.571 115.571 132 117 132C118.429 132 119 133.69 119 135Z" fill="white"/>
<path d="M141 135C141 136.429 140.429 137 139 137C137.571 137 136 136.429 136 135C136 133.571 137.571 132 139 132C140.429 132 141 133.69 141 135Z" fill="white"/>
</g>
</svg>
